<?xml version="1.0" standalone="no"?>
<!DOCTYPE svg PUBLIC "-//W3C//DTD SVG 20010904//EN"
 "http://www.w3.org/TR/2001/REC-SVG-20010904/DTD/svg10.dtd">
<svg version="1.0" xmlns="http://www.w3.org/2000/svg"
 width="2000.000000pt" height="2000.000000pt" viewBox="0 0 2000.000000 2000.000000"
 preserveAspectRatio="xMidYMid meet">
<metadata>
Created by potrace 1.11, written by Peter Selinger 2001-2013
</metadata>
<g transform="translate(0.000000,2000.000000) scale(0.100000,-0.100000)"
fill="#000000" stroke="none">
<path d="M9192 16193 c-22 -11 -49 -42 -86 -102 -343 -556 -5366 -8863 -5720
-9461 l-478 -805 5 -50 c4 -45 61 -144 574 -994 485 -805 574 -947 603 -963
34 -19 91 -20 3880 -13 2115 4 4752 7 5860 7 2155 0 2050 -2 2096 49 18 21
1110 1814 1144 1878 6 13 10 42 8 65 -2 32 -480 929 -2207 4146 -2106 3922
-3295 6134 -3329 6192 -8 14 -32 36 -52 47 -38 21 -39 21 -1151 21 -1005 0
-1117 -2 -1147 -17z m1941 -322 c-15 -26 -1144 -1889 -2508 -4140 l-2480
-4091 -908 0 c-723 0 -908 3 -904 13 5 12 4939 8162 4983 8230 l24 37 911 0
911 0 -29 -49z m677 -831 c234 -436 386 -728 381 -734 -5 -6 -247 -402 -538
-881 -1226 -2015 -1619 -2661 -2544 -4182 l-974 -1602 -822 -1 c-453 0 -823 2
-823 5 0 3 4477 7395 4875 8048 26 43 49 76 51 74 3 -2 180 -330 394 -727z
m2756 -5130 c1209 -2252 2198 -4102 2198 -4110 0 -21 -925 -1541 -936 -1538
-4 2 -489 899 -1076 1993 -588 1095 -1580 2943 -2205 4107 l-1136 2117 102
168 c57 92 269 439 471 771 203 332 372 600 376 595 4 -4 997 -1851 2206
-4103z m-1191 -1705 c1170 -2178 2145 -3993 2167 -4033 l39 -72 -808 0 -808 0
-441 822 c-243 453 -1048 1953 -1789 3333 -741 1381 -1348 2515 -1348 2521 -1
18 847 1403 855 1396 3 -4 963 -1789 2133 -3967z m-2396 851 c418 -780 761
-1421 761 -1422 0 -7 -2730 -2 -3006 5 l-261 6 865 1422 c477 783 869 1419
873 1415 4 -4 349 -646 768 -1426z m144 -1714 l778 -7 373 -695 372 -695
-1765 -6 c-2037 -7 -7571 -11 -7571 -5 0 2 169 289 376 637 207 349 396 668
420 709 l43 75 3098 -3 c1704 -2 3448 -6 3876 -10z m2099 -2464 l415 -773
-2626 -7 c-1444 -4 -3558 -8 -4697 -10 l-2072 -3 -466 775 -467 775 2393 5
c1316 3 3453 6 4749 8 l2356 2 415 -772z"/>
</g>
</svg>
